<svg height="512" viewBox="0 0 512 512" width="512" xmlns="http://www.w3.org/2000/svg"><g id="Flat"><path d="m336 104v80h-24v-80a56 56 0 0 0 -112 0v80h-24v-80a80 80 0 1 1 160 0z" fill="#396795"/><path d="m408 272v184a32.004 32.004 0 0 1 -32 32h-240a32.004 32.004 0 0 1 -32-32v-184a72.00587 72.00587 0 0 0 72-72v-16h160v16a72.00575 72.00575 0 0 0 72 72z" fill="#2d80b3"/><path d="m121.23779 302.57666-2.63379-15.78125a87.67449 87.67449 0 0 0 14.18311-3.60937l5.23242 15.12011a103.6115 103.6115 0 0 1 -16.78174 4.27051zm24.8501-7.44678-6.48144-14.6289a88.07144 88.07144 0 0 0 12.85009-7.03077l8.82227 13.34766a104.12 104.12 0 0 1 -15.19092 8.31201zm22.21289-13.38476-9.8999-12.56934a88.85387 88.85387 0 0 0 10.72363-9.98974l11.83692 10.76562a104.89612 104.89612 0 0 1 -12.66065 11.79346zm18.21533-18.43555-12.6875-9.74805a88.34518 88.34518 0 0 0 7.92627-12.3125l14.12744 7.51075a104.38506 104.38506 0 0 1 -9.36621 14.5498zm13.10889-22.35986-14.70508-6.30471a87.625 87.625 0 0 0 4.61963-13.88818l15.55176 3.76074a103.66776 103.66776 0 0 1 -5.46631 16.43215zm7.14746-24.93164-15.81152-2.44629a89.075 89.075 0 0 0 1.03906-13.57178v-1.14258h16v1.14258a105.10709 105.10709 0 0 1 -1.22754 16.01807z" fill="#396795"/><path d="m373.98047 298.30615 5.23242-15.12011a87.67449 87.67449 0 0 0 14.18311 3.60937l-2.63379 15.78125a103.6115 103.6115 0 0 1 -16.78174-4.27051zm-23.25928-11.48828 8.82227-13.34766a88.07144 88.07144 0 0 0 12.85009 7.03077l-6.48144 14.6289a104.12 104.12 0 0 1 -15.19092-8.31201zm-19.68262-16.86621 11.83692-10.76566a88.85467 88.85467 0 0 0 10.72363 9.98974l-9.8999 12.56934a104.89612 104.89612 0 0 1 -12.66065-11.79342zm-14.92089-21.19189 14.12744-7.51075a88.34518 88.34518 0 0 0 7.92627 12.3125l-12.6875 9.74805a104.38506 104.38506 0 0 1 -9.36621-14.5498zm-9.209-24.24219 15.55176-3.76074a87.625 87.625 0 0 0 4.61963 13.88818l-14.70507 6.30469a103.66776 103.66776 0 0 1 -5.46631-16.43213zm-2.90868-24.51758v-1.14258h16v1.14258a89.075 89.075 0 0 0 1.03906 13.57178l-15.81152 2.44629a105.10709 105.10709 0 0 1 -1.22754-16.01807z" fill="#396795"/><path d="m184 304h144a0 0 0 0 1 0 0v72a24 24 0 0 1 -24 24h-96a24 24 0 0 1 -24-24v-72a0 0 0 0 1 0 0z" fill="#ad7d4d"/><g fill="#966342"><path d="m200 320h16v16h-16z"/><path d="m224 320h16v16h-16z"/><path d="m272 320h16v16h-16z"/><path d="m296 320h16v16h-16z"/><path d="m248 320h16v16h-16z"/><path d="m248 344h16v16h-16z"/><path d="m248 368h16v16h-16z"/></g><path d="m104 296h-32a24 24 0 0 0 -24 24 24 24 0 0 0 24 24h40a48 48 0 0 1 48 48v.0001a48 48 0 0 1 -48 48h-88v-24.0001h88a24 24 0 0 0 24-24 24 24 0 0 0 -24-24h-40a48 48 0 0 1 -47.99995-48 48 48 0 0 1 48-48h31.99995z" fill="#396795"/><path d="m432 152h-16a24 24 0 0 0 -24 24 24 24 0 0 0 24 24h24.00007a48 48 0 0 1 48 48v.0001a48 48 0 0 1 -48 48h-32.00007v-24.0001h32a24 24 0 0 0 24-24 24 24 0 0 0 -24-24h-24a48 48 0 0 1 -48-48 48 48 0 0 1 48-48h16z" fill="#396795"/></g></svg>