<svg height="512" viewBox="0 0 74 74" width="512" xmlns="http://www.w3.org/2000/svg"><g id="color_line" data-name="color line"><path d="m44.581 30.963a32.744 32.744 0 0 0 -17.24 0l4.23 5.07a11.331 11.331 0 0 1 8.78 0z" fill="#bbbbcd"/><path d="m40.351 36.533a.508.508 0 0 1 -.188-.037 10.8 10.8 0 0 0 -8.4 0 .5.5 0 0 1 -.572-.143l-4.23-5.07a.5.5 0 0 1 .25-.8 33.328 33.328 0 0 1 17.507 0 .5.5 0 0 1 .25.8l-4.23 5.07a.5.5 0 0 1 -.387.18zm-4.39-1.89a11.976 11.976 0 0 1 4.237.793l3.5-4.189a32.394 32.394 0 0 0 -15.465 0l3.5 4.189a11.974 11.974 0 0 1 4.228-.793z" fill="#323c6b"/><circle cx="17.667" cy="43.333" fill="#bbbbcd" r="15.706"/><circle cx="54.255" cy="43.333" fill="#bbbbcd" r="15.706"/><circle cx="17.667" cy="43.333" fill="#89c5cd" r="11.563"/><path d="m17.667 55.4a12.063 12.063 0 1 1 12.062-12.067 12.076 12.076 0 0 1 -12.062 12.067zm0-23.125a11.063 11.063 0 1 0 11.062 11.058 11.075 11.075 0 0 0 -11.062-11.062z" fill="#323c6b"/><circle cx="54.255" cy="43.333" fill="#89c5cd" r="11.563"/><path d="m54.255 55.4a12.063 12.063 0 1 1 12.062-12.067 12.076 12.076 0 0 1 -12.062 12.067zm0-23.125a11.063 11.063 0 1 0 11.062 11.058 11.075 11.075 0 0 0 -11.062-11.062z" fill="#323c6b"/><path d="m28.44 54.75a15.7 15.7 0 0 0 -23.6-20.48 15.7 15.7 0 1 1 23.6 20.48z" fill="#9297ab"/><path d="m65.02 54.77a15.7 15.7 0 0 0 -23.6-20.48 15.7 15.7 0 1 1 23.6 20.48z" fill="#9297ab"/><g fill="#323c6b"><path d="m17.667 59.539a16.206 16.206 0 1 1 16.206-16.206 16.224 16.224 0 0 1 -16.206 16.206zm0-31.412a15.206 15.206 0 1 0 15.206 15.206 15.223 15.223 0 0 0 -15.206-15.206z"/><path d="m54.255 59.539a16.206 16.206 0 1 1 16.206-16.206 16.224 16.224 0 0 1 -16.206 16.206zm0-31.412a15.206 15.206 0 1 0 15.206 15.206 15.223 15.223 0 0 0 -15.206-15.206z"/><path d="m24.75 61.123a.5.5 0 0 1 -.19-.962c.358-.147.708-.311 1.054-.479a.5.5 0 0 1 .438.9c-.365.179-.734.351-1.113.506a.5.5 0 0 1 -.189.035z"/><path d="m17.667 62.539a19.115 19.115 0 0 1 -6.075-1 .5.5 0 0 1 .317-.948 17.511 17.511 0 0 0 9.893.444.5.5 0 1 1 .23.973 18.708 18.708 0 0 1 -4.365.531z"/><path d="m70.732 35a.5.5 0 0 1 -.441-.263 18.27 18.27 0 0 0 -7.321-7.382.5.5 0 0 1 .48-.877 19.272 19.272 0 0 1 7.722 7.785.5.5 0 0 1 -.44.737z"/><path d="m72.1 38.292a.5.5 0 0 1 -.478-.352l-.076-.252c-.043-.146-.085-.293-.137-.437a.5.5 0 1 1 .942-.335c.057.161.105.325.154.49l.071.237a.5.5 0 0 1 -.329.626.507.507 0 0 1 -.147.023z"/></g></g></svg>